<svg width="110" height="27" viewBox="0 0 110 27" fill="none" xmlns="http://www.w3.org/2000/svg">
<path d="M108.967 18.7529L110 16.9515L106.232 10.3791H104.167L100.399 16.9515L101.431 18.7529H108.967Z" fill="white"/>
<path fill-rule="evenodd" clip-rule="evenodd" d="M13.1948 0C13.201 0 13.2072 1.7256e-05 13.2134 5.1768e-05C14.0008 0.00443429 14.6732 0.28714 15.2302 0.848167C15.7683 1.39005 16.0373 2.06152 16.0373 2.86256L16.0374 15.9385C16.0374 16.7395 15.7683 17.4228 15.2302 17.9882C14.6688 18.5301 13.9903 18.8011 13.1949 18.8011H2.84249C2.04706 18.8011 1.36861 18.5301 0.807128 17.9882C0.269043 17.4228 0 16.7395 0 15.9385V2.86256C0 2.06152 0.269043 1.39005 0.807128 0.848167C1.36337 0.287997 2.03442 0.00529935 2.82026 7.38081e-05C2.82766 2.46027e-05 2.83507 0 2.84249 0H13.1948ZM3.68471 3.71073V15.1257H12.3526V3.71073H3.68471Z" fill="white"/>
<path d="M51.3099 0.212041C51.1695 0.0706805 51.0058 0 50.8186 0H48.5376C48.3504 0 48.1867 0.0706805 48.0463 0.212041C47.9059 0.329842 47.8358 0.482984 47.8358 0.671466V15.0903H43.6597C43.613 15.0903 43.5545 15.0785 43.4843 15.055C43.4141 15.0079 43.3556 14.9725 43.3088 14.949L40.2207 11.5563C40.1739 11.5092 40.1271 11.4267 40.0803 11.3089C40.0569 11.1911 40.0335 11.1086 40.0101 11.0615V0.671466C40.0101 0.482984 39.9399 0.329842 39.7996 0.212041C39.6826 0.0706805 39.5305 0 39.3434 0H37.0624C36.8752 0 36.7114 0.0706805 36.5711 0.212041C36.4307 0.329842 36.3605 0.482984 36.3605 0.671466V11.0615C36.3605 11.5327 36.4658 12.0628 36.6763 12.6518C36.9103 13.2408 37.191 13.712 37.5186 14.0654L40.6418 17.4581C40.9927 17.8586 41.4489 18.1885 42.0104 18.4476C42.5719 18.6832 43.1217 18.8011 43.6597 18.8011H47.8358V20.144C47.8358 20.1911 47.8124 20.2618 47.7656 20.356C47.7422 20.4738 47.7071 20.5563 47.6603 20.6034L44.116 24.2081C43.999 24.3259 43.9405 24.4555 43.9405 24.5969C43.9405 24.7618 43.999 24.9031 44.116 25.0209L45.9057 26.8233C46.0226 26.9411 46.1513 27 46.2917 27C46.4555 27 46.5958 26.9411 46.7128 26.8233L50.2922 23.1832C50.6198 22.8298 50.9005 22.3586 51.1345 21.7696C51.3918 21.1806 51.5205 20.6387 51.5205 20.144V0.671466C51.5205 0.482984 51.4503 0.329842 51.3099 0.212041Z" fill="white"/>
<path d="M54.2292 18.8011H56.7207C56.8845 18.8011 57.0249 18.7539 57.1419 18.6597C57.2588 18.5419 57.3173 18.3888 57.3173 18.2003V3.69118H63.9147C64.289 3.69118 64.4762 3.49092 64.4762 3.0904V0.616574C64.4762 0.216051 64.289 0.0157901 63.9147 0.0157901H56.4751C55.7031 0.0157901 55.0363 0.298512 54.4748 0.863957C53.9133 1.40584 53.6326 2.06553 53.6326 2.84301V18.2003C53.6326 18.3888 53.6911 18.5419 53.8081 18.6597C53.925 18.7539 54.0654 18.8011 54.2292 18.8011Z" fill="white"/>
<path d="M81.0448 0C81.2319 0 81.3957 0.0706805 81.5361 0.212041C81.6765 0.329842 81.7466 0.482984 81.7466 0.671466V20.144C81.7466 20.6387 81.618 21.1806 81.3606 21.7696C81.1267 22.3586 80.8459 22.8298 80.5184 23.1832L76.939 26.8233C76.822 26.9411 76.6816 27 76.5179 27C76.3775 27 76.2488 26.9411 76.1318 26.8233L74.3421 25.0209C74.2251 24.9031 74.1667 24.7618 74.1667 24.5969C74.1667 24.4555 74.2251 24.3259 74.3421 24.2081L77.8865 20.6034C77.9333 20.5563 77.9683 20.4738 77.9917 20.356C78.0385 20.2618 78.0619 20.1911 78.0619 20.144V18.8011H73.8859C73.3478 18.8011 72.798 18.6832 72.2366 18.4476C71.6751 18.1885 71.2189 17.8586 70.868 17.4581L67.7447 14.0654C67.4172 13.712 67.1365 13.2408 66.9025 12.6518C66.6919 12.0628 66.5867 11.5327 66.5867 11.0615V0.671466C66.5867 0.482984 66.6569 0.329842 66.7972 0.212041C66.9376 0.0706805 67.1014 0 67.2885 0H69.5695C69.7567 0 69.9088 0.0706805 70.0257 0.212041C70.1661 0.329842 70.2363 0.482984 70.2363 0.671466V11.0615C70.2597 11.1086 70.2831 11.1911 70.3065 11.3089C70.3533 11.4267 70.4001 11.5092 70.4469 11.5563L73.535 14.949C73.5818 14.9725 73.6403 15.0079 73.7105 15.055C73.7806 15.0785 73.8391 15.0903 73.8859 15.0903H78.0619V0.671466C78.0619 0.482984 78.1321 0.329842 78.2725 0.212041C78.4128 0.0706805 78.5766 0 78.7638 0H81.0448Z" fill="white"/>
<path d="M34.7211 9.64791V11.0615C34.7211 11.5327 34.6042 12.0628 34.3702 12.6518C34.084 13.2097 33.8285 13.6386 33.528 14.0654L31.4845 17.4581C31.1102 17.8586 30.6423 18.1885 30.0808 18.4476C29.5427 18.6832 29.0046 18.8011 28.4665 18.8011H19.877C19.7132 18.8011 19.5729 18.7539 19.4559 18.6597C19.3389 18.5419 19.2804 18.3887 19.2804 18.2003V15.6911C19.2804 15.5262 19.3389 15.3966 19.4559 15.3024C19.5729 15.1846 19.7132 15.1257 19.877 15.1257H28.4665C28.5133 15.1021 28.5718 15.0785 28.642 15.055C28.7122 15.0314 28.7706 14.9961 28.8174 14.949L30.861 11.5563C30.9078 11.5092 30.9429 11.4385 30.9662 11.3442C31.013 11.2264 31.0364 11.1322 31.0364 11.0615V10.7081H21.0351C20.263 10.7081 19.5963 10.4372 19.0348 9.89529C18.4967 9.32984 18.2277 8.6466 18.2277 7.84555V2.86256C18.2277 2.06152 18.4967 1.39005 19.0348 0.848167C19.5963 0.282723 20.263 0 21.0351 0H32.4752C32.639 0 32.7794 0.0589005 32.8963 0.176701C33.0133 0.294502 33.0718 0.435863 33.0718 0.600784V3.10995C33.0718 3.27487 33.0133 3.41623 32.8963 3.53403C32.7794 3.65183 32.639 3.71073 32.4752 3.71073H21.8773V6.99738H31.8787C32.6273 6.99738 33.2707 7.25654 33.8087 7.77487C34.3468 8.26963 34.6393 8.89398 34.6861 9.64791H34.7211Z" fill="white"/>
<path d="M100.307 11.0615V9.64791H100.272C100.225 8.89398 99.9324 8.26963 99.3943 7.77487C98.8562 7.25654 98.2128 6.99738 97.4642 6.99738H87.4628V3.71073H98.0607C98.2245 3.71073 98.3649 3.65183 98.4819 3.53403C98.5988 3.41623 98.6573 3.27487 98.6573 3.10995V0.600784C98.6573 0.435863 98.5988 0.294502 98.4819 0.176701C98.3649 0.0589005 98.2245 0 98.0607 0H86.6206C85.8485 0 85.1818 0.282723 84.6203 0.848167C84.0822 1.39005 83.8132 2.06152 83.8132 2.86256V7.84555C83.8132 8.6466 84.0822 9.32984 84.6203 9.89529C85.1818 10.4372 85.8485 10.7081 86.6206 10.7081H96.622V11.0615C96.622 11.1322 96.5986 11.2264 96.5518 11.3442C96.5284 11.4385 96.4933 11.5092 96.4465 11.5563L94.403 14.949C94.3562 14.9961 94.2977 15.0314 94.2275 15.055C94.1573 15.0785 94.0988 15.1021 94.052 15.1257H85.4625C85.2988 15.1257 85.1584 15.1846 85.0414 15.3024C84.9245 15.3966 84.866 15.5262 84.866 15.6911V18.2003C84.866 18.3887 84.9245 18.5419 85.0414 18.6597C85.1584 18.7539 85.2988 18.8011 85.4625 18.8011H94.052C94.5901 18.8011 95.1282 18.6832 95.6663 18.4476C96.2278 18.1885 96.6957 17.8586 97.07 17.4581L99.1135 14.0654C99.414 13.6386 99.6696 13.2097 99.9557 12.6518C100.19 12.0628 100.307 11.5327 100.307 11.0615Z" fill="white"/>
</svg>
